# xmcd
#
# Track frame offsets: 
#        150
#        21562
#        42727
#        67162
#        88707
#        113795
#        133535
#        155285
#        173842
#        196985
#
# Disc length: 2943 seconds
#
# Revision: 0
# Processed by: cddbd v1.5.2PL0 Copyright (c) Steve Scherf et al.
# Submitted via: ExactAudioCopy v1.0b3
#
DISCID=8d0b7d0a
DTITLE=Phuong Mai, Tuan Vu - Duyen Que
DYEAR=1992
DGENRE=
TTITLE0=Phuong Mai - Con thuong rau dang moc sau he
TTITLE1=Phuong Mai - Dem bo vo
TTITLE2=Buon ma chi em
TTITLE3=Phuong Mai - Tieng ho mien Nam
TTITLE4=Phuong Mai - Gao trang trang thanh
TTITLE5=Phuong Mai - Tien biet
TTITLE6=Phuong Mai - Duyen kiep
TTITLE7=Neu dung dang do
TTITLE8=Phuong Mai - Anh hoi anh cu ve
TTITLE9=Phuong Mai - Duyen que
EXTD=
EXTT0=
EXTT1=
EXTT2=
EXTT3=
EXTT4=
EXTT5=
EXTT6=
EXTT7=
EXTT8=
EXTT9=
PLAYORDER=
